<svg width="41" height="40" viewBox="0 0 41 40" fill="none" xmlns="http://www.w3.org/2000/svg">
<path d="M20.5 3.56928C25.7349 3.56928 26.4488 3.56928 28.5904 3.56928C30.494 3.56928 31.4458 4.04518 32.1596 4.28313C33.1114 4.75904 33.8253 4.99699 34.5392 5.71084C35.253 6.4247 35.7289 7.13856 35.9669 8.09036C36.2048 8.80422 36.4428 9.75603 36.6807 11.6596C36.6807 13.8012 36.6807 14.2771 36.6807 19.75C36.6807 25.2229 36.6807 25.6988 36.6807 27.8404C36.6807 29.744 36.2048 30.6958 35.9669 31.4096C35.491 32.3614 35.253 33.0753 34.5392 33.7892C33.8253 34.503 33.1114 34.9789 32.1596 35.2169C31.4458 35.4548 30.494 35.6928 28.5904 35.9307C26.4488 35.9307 25.9729 35.9307 20.5 35.9307C15.0271 35.9307 14.5512 35.9307 12.4096 35.9307C10.506 35.9307 9.55422 35.4548 8.84036 35.2169C7.88856 34.741 7.1747 34.503 6.46084 33.7892C5.74699 33.0753 5.27109 32.3614 5.03313 31.4096C4.79518 30.6958 4.55723 29.744 4.31928 27.8404C4.31928 25.6988 4.31928 25.2229 4.31928 19.75C4.31928 14.2771 4.31928 13.8012 4.31928 11.6596C4.31928 9.75603 4.79518 8.80422 5.03313 8.09036C5.50904 7.13856 5.74699 6.4247 6.46084 5.71084C7.1747 4.99699 7.88856 4.52109 8.84036 4.28313C9.55422 4.04518 10.506 3.80723 12.4096 3.56928C14.5512 3.56928 15.2651 3.56928 20.5 3.56928ZM20.5 0C15.0271 0 14.5512 0 12.4096 0C10.2681 0 8.84036 0.475905 7.6506 0.951809C6.46084 1.42771 5.27109 2.14157 4.08133 3.33133C2.89157 4.52109 2.41566 5.47289 1.70181 6.9006C1.22591 8.09036 0.987952 9.51807 0.75 11.6596C0.75 13.8012 0.75 14.5151 0.75 19.75C0.75 25.2229 0.75 25.6988 0.75 27.8404C0.75 29.9819 1.22591 31.4096 1.70181 32.5994C2.17771 33.7892 2.89157 34.9789 4.08133 36.1687C5.27109 37.3584 6.22289 37.8343 7.6506 38.5482C8.84036 39.0241 10.2681 39.262 12.4096 39.5C14.5512 39.5 15.2651 39.5 20.5 39.5C25.7349 39.5 26.4488 39.5 28.5904 39.5C30.7319 39.5 32.1596 39.0241 33.3494 38.5482C34.5392 38.0723 35.7289 37.3584 36.9187 36.1687C38.1084 34.9789 38.5843 34.0271 39.2982 32.5994C39.7741 31.4096 40.012 29.9819 40.25 27.8404C40.25 25.6988 40.25 24.9849 40.25 19.75C40.25 14.5151 40.25 13.8012 40.25 11.6596C40.25 9.51807 39.7741 8.09036 39.2982 6.9006C38.8223 5.71084 38.1084 4.52109 36.9187 3.33133C35.7289 2.14157 34.7771 1.66566 33.3494 0.951809C32.1596 0.475905 30.7319 0.237952 28.5904 0C26.4488 0 25.9729 0 20.5 0Z" fill="white"/>
<path d="M20.5 3.56928C25.7349 3.56928 26.4488 3.56928 28.5904 3.56928C30.494 3.56928 31.4458 4.04518 32.1596 4.28313C33.1114 4.75904 33.8253 4.99699 34.5392 5.71084C35.253 6.4247 35.7289 7.13856 35.9669 8.09036C36.2048 8.80422 36.4428 9.75603 36.6807 11.6596C36.6807 13.8012 36.6807 14.2771 36.6807 19.75C36.6807 25.2229 36.6807 25.6988 36.6807 27.8404C36.6807 29.744 36.2048 30.6958 35.9669 31.4096C35.491 32.3614 35.253 33.0753 34.5392 33.7892C33.8253 34.503 33.1114 34.9789 32.1596 35.2169C31.4458 35.4548 30.494 35.6928 28.5904 35.9307C26.4488 35.9307 25.9729 35.9307 20.5 35.9307C15.0271 35.9307 14.5512 35.9307 12.4096 35.9307C10.506 35.9307 9.55422 35.4548 8.84036 35.2169C7.88856 34.741 7.1747 34.503 6.46084 33.7892C5.74699 33.0753 5.27109 32.3614 5.03313 31.4096C4.79518 30.6958 4.55723 29.744 4.31928 27.8404C4.31928 25.6988 4.31928 25.2229 4.31928 19.75C4.31928 14.2771 4.31928 13.8012 4.31928 11.6596C4.31928 9.75603 4.79518 8.80422 5.03313 8.09036C5.50904 7.13856 5.74699 6.4247 6.46084 5.71084C7.1747 4.99699 7.88856 4.52109 8.84036 4.28313C9.55422 4.04518 10.506 3.80723 12.4096 3.56928C14.5512 3.56928 15.2651 3.56928 20.5 3.56928ZM20.5 0C15.0271 0 14.5512 0 12.4096 0C10.2681 0 8.84036 0.475905 7.6506 0.951809C6.46084 1.42771 5.27109 2.14157 4.08133 3.33133C2.89157 4.52109 2.41566 5.47289 1.70181 6.9006C1.22591 8.09036 0.987952 9.51807 0.75 11.6596C0.75 13.8012 0.75 14.5151 0.75 19.75C0.75 25.2229 0.75 25.6988 0.75 27.8404C0.75 29.9819 1.22591 31.4096 1.70181 32.5994C2.17771 33.7892 2.89157 34.9789 4.08133 36.1687C5.27109 37.3584 6.22289 37.8343 7.6506 38.5482C8.84036 39.0241 10.2681 39.262 12.4096 39.5C14.5512 39.5 15.2651 39.5 20.5 39.5C25.7349 39.5 26.4488 39.5 28.5904 39.5C30.7319 39.5 32.1596 39.0241 33.3494 38.5482C34.5392 38.0723 35.7289 37.3584 36.9187 36.1687C38.1084 34.9789 38.5843 34.0271 39.2982 32.5994C39.7741 31.4096 40.012 29.9819 40.25 27.8404C40.25 25.6988 40.25 24.9849 40.25 19.75C40.25 14.5151 40.25 13.8012 40.25 11.6596C40.25 9.51807 39.7741 8.09036 39.2982 6.9006C38.8223 5.71084 38.1084 4.52109 36.9187 3.33133C35.7289 2.14157 34.7771 1.66566 33.3494 0.951809C32.1596 0.475905 30.7319 0.237952 28.5904 0C26.4488 0 25.9729 0 20.5 0Z" fill="url(#paint0_linear_1_2580)"/>
<path d="M20.5 3.56928C25.7349 3.56928 26.4488 3.56928 28.5904 3.56928C30.494 3.56928 31.4458 4.04518 32.1596 4.28313C33.1114 4.75904 33.8253 4.99699 34.5392 5.71084C35.253 6.4247 35.7289 7.13856 35.9669 8.09036C36.2048 8.80422 36.4428 9.75603 36.6807 11.6596C36.6807 13.8012 36.6807 14.2771 36.6807 19.75C36.6807 25.2229 36.6807 25.6988 36.6807 27.8404C36.6807 29.744 36.2048 30.6958 35.9669 31.4096C35.491 32.3614 35.253 33.0753 34.5392 33.7892C33.8253 34.503 33.1114 34.9789 32.1596 35.2169C31.4458 35.4548 30.494 35.6928 28.5904 35.9307C26.4488 35.9307 25.9729 35.9307 20.5 35.9307C15.0271 35.9307 14.5512 35.9307 12.4096 35.9307C10.506 35.9307 9.55422 35.4548 8.84036 35.2169C7.88856 34.741 7.1747 34.503 6.46084 33.7892C5.74699 33.0753 5.27109 32.3614 5.03313 31.4096C4.79518 30.6958 4.55723 29.744 4.31928 27.8404C4.31928 25.6988 4.31928 25.2229 4.31928 19.75C4.31928 14.2771 4.31928 13.8012 4.31928 11.6596C4.31928 9.75603 4.79518 8.80422 5.03313 8.09036C5.50904 7.13856 5.74699 6.4247 6.46084 5.71084C7.1747 4.99699 7.88856 4.52109 8.84036 4.28313C9.55422 4.04518 10.506 3.80723 12.4096 3.56928C14.5512 3.56928 15.2651 3.56928 20.5 3.56928ZM20.5 0C15.0271 0 14.5512 0 12.4096 0C10.2681 0 8.84036 0.475905 7.6506 0.951809C6.46084 1.42771 5.27109 2.14157 4.08133 3.33133C2.89157 4.52109 2.41566 5.47289 1.70181 6.9006C1.22591 8.09036 0.987952 9.51807 0.75 11.6596C0.75 13.8012 0.75 14.5151 0.75 19.75C0.75 25.2229 0.75 25.6988 0.75 27.8404C0.75 29.9819 1.22591 31.4096 1.70181 32.5994C2.17771 33.7892 2.89157 34.9789 4.08133 36.1687C5.27109 37.3584 6.22289 37.8343 7.6506 38.5482C8.84036 39.0241 10.2681 39.262 12.4096 39.5C14.5512 39.5 15.2651 39.5 20.5 39.5C25.7349 39.5 26.4488 39.5 28.5904 39.5C30.7319 39.5 32.1596 39.0241 33.3494 38.5482C34.5392 38.0723 35.7289 37.3584 36.9187 36.1687C38.1084 34.9789 38.5843 34.0271 39.2982 32.5994C39.7741 31.4096 40.012 29.9819 40.25 27.8404C40.25 25.6988 40.25 24.9849 40.25 19.75C40.25 14.5151 40.25 13.8012 40.25 11.6596C40.25 9.51807 39.7741 8.09036 39.2982 6.9006C38.8223 5.71084 38.1084 4.52109 36.9187 3.33133C35.7289 2.14157 34.7771 1.66566 33.3494 0.951809C32.1596 0.475905 30.7319 0.237952 28.5904 0C26.4488 0 25.9729 0 20.5 0Z" fill="#FCBB63"/>
<path d="M20.5 9.51807C14.7892 9.51807 10.2681 14.0392 10.2681 19.75C10.2681 25.4608 14.7892 29.9819 20.5 29.9819C26.2108 29.9819 30.7319 25.4608 30.7319 19.75C30.7319 14.0392 26.2108 9.51807 20.5 9.51807ZM20.5 26.4127C16.9307 26.4127 13.8374 23.5572 13.8374 19.75C13.8374 16.1807 16.6928 13.0874 20.5 13.0874C24.0693 13.0874 27.1627 15.9428 27.1627 19.75C27.1627 23.3193 24.0693 26.4127 20.5 26.4127Z" fill="white"/>
<path d="M20.5 9.51807C14.7892 9.51807 10.2681 14.0392 10.2681 19.75C10.2681 25.4608 14.7892 29.9819 20.5 29.9819C26.2108 29.9819 30.7319 25.4608 30.7319 19.75C30.7319 14.0392 26.2108 9.51807 20.5 9.51807ZM20.5 26.4127C16.9307 26.4127 13.8374 23.5572 13.8374 19.75C13.8374 16.1807 16.6928 13.0874 20.5 13.0874C24.0693 13.0874 27.1627 15.9428 27.1627 19.75C27.1627 23.3193 24.0693 26.4127 20.5 26.4127Z" fill="url(#paint1_linear_1_2580)"/>
<path d="M20.5 9.51807C14.7892 9.51807 10.2681 14.0392 10.2681 19.75C10.2681 25.4608 14.7892 29.9819 20.5 29.9819C26.2108 29.9819 30.7319 25.4608 30.7319 19.75C30.7319 14.0392 26.2108 9.51807 20.5 9.51807ZM20.5 26.4127C16.9307 26.4127 13.8374 23.5572 13.8374 19.75C13.8374 16.1807 16.6928 13.0874 20.5 13.0874C24.0693 13.0874 27.1627 15.9428 27.1627 19.75C27.1627 23.3193 24.0693 26.4127 20.5 26.4127Z" fill="#FCBB63"/>
<path d="M30.9699 11.6596C32.2841 11.6596 33.3494 10.5943 33.3494 9.28012C33.3494 7.96595 32.2841 6.9006 30.9699 6.9006C29.6557 6.9006 28.5904 7.96595 28.5904 9.28012C28.5904 10.5943 29.6557 11.6596 30.9699 11.6596Z" fill="white"/>
<path d="M30.9699 11.6596C32.2841 11.6596 33.3494 10.5943 33.3494 9.28012C33.3494 7.96595 32.2841 6.9006 30.9699 6.9006C29.6557 6.9006 28.5904 7.96595 28.5904 9.28012C28.5904 10.5943 29.6557 11.6596 30.9699 11.6596Z" fill="url(#paint2_linear_1_2580)"/>
<path d="M30.9699 11.6596C32.2841 11.6596 33.3494 10.5943 33.3494 9.28012C33.3494 7.96595 32.2841 6.9006 30.9699 6.9006C29.6557 6.9006 28.5904 7.96595 28.5904 9.28012C28.5904 10.5943 29.6557 11.6596 30.9699 11.6596Z" fill="#FCBB63"/>
<defs>
<linearGradient id="paint0_linear_1_2580" x1="0.75" y1="0" x2="40.25" y2="39.5" gradientUnits="userSpaceOnUse">
<stop stop-color="#DB00FF"/>
<stop offset="1" stop-color="#00E0FF"/>
</linearGradient>
<linearGradient id="paint1_linear_1_2580" x1="0.75" y1="0" x2="40.25" y2="39.5" gradientUnits="userSpaceOnUse">
<stop stop-color="#DB00FF"/>
<stop offset="1" stop-color="#00E0FF"/>
</linearGradient>
<linearGradient id="paint2_linear_1_2580" x1="0.75" y1="0" x2="40.25" y2="39.5" gradientUnits="userSpaceOnUse">
<stop stop-color="#DB00FF"/>
<stop offset="1" stop-color="#00E0FF"/>
</linearGradient>
</defs>
</svg>
