<svg width="40" height="40" viewBox="0 0 40 40" fill="none" xmlns="http://www.w3.org/2000/svg">
<path fill-rule="evenodd" clip-rule="evenodd" d="M0.75 0.122671C0.75 0.184006 3.00714 3.52065 5.75497 7.51972C6.60709 8.75605 7.45803 9.99003 8.24377 11.1295C9.9918 13.6643 11.4171 15.7313 11.8149 16.3152C12.1662 16.831 12.7179 17.6291 13.273 18.4321C13.6289 18.9469 13.9861 19.4638 14.2929 19.9095L15.7158 21.9581C13.3851 24.6814 11.6922 26.6564 10.441 28.1039C9.66545 29.01 8.31795 30.5745 6.91896 32.1988C6.08298 33.1695 5.22861 34.1615 4.46693 35.0471C2.41832 37.4269 0.75 39.4019 0.75 39.4387C0.75 39.4755 1.48602 39.5 2.38152 39.5H4.00078C5.0487 38.2915 6.47505 36.6347 8.01111 34.8505C8.70472 34.0448 9.42071 33.2132 10.1343 32.3851C10.9702 31.4151 11.8355 30.4109 12.635 29.4828C14.0297 27.8641 15.2246 26.4773 15.7158 25.9081C16.4887 25.0126 17.1634 24.2766 17.2247 24.2888C17.2738 24.2888 18.0343 25.3561 18.9298 26.6441C19.813 27.9444 20.7699 29.3429 21.052 29.7477C21.201 29.9614 21.4389 30.3085 21.6989 30.6879C21.9313 31.027 22.1814 31.3919 22.4014 31.7104C22.8675 32.3851 24.2537 34.4092 25.4927 36.2247L27.7376 39.5C38.0542 39.5 39.2564 39.4632 39.2196 39.3405C39.2073 39.2669 38.0787 37.5863 36.7416 35.6359C35.7047 34.1371 34.6895 32.6527 34.1525 31.8676C33.9907 31.6309 33.8723 31.4578 33.8098 31.3669C33.6725 31.1672 33.4017 30.7769 33.0784 30.3108C32.7664 29.8608 32.4053 29.3402 32.0679 28.8522C31.6344 28.2253 30.9959 27.2956 30.3865 26.4082C30.03 25.8892 29.6834 25.3846 29.3936 24.9635C28.975 24.3552 28.4866 23.6387 28.0475 22.9946C27.6631 22.4307 27.3165 21.9222 27.0874 21.5901C26.9435 21.3814 26.7627 21.1179 26.5622 20.8258C26.0792 20.1219 25.4824 19.2522 25.0143 18.5846C24.3641 17.6401 23.8121 16.8059 23.7876 16.7323C23.7753 16.6587 24.1311 16.1312 24.6095 15.5792C24.8911 15.247 25.1599 14.9319 25.346 14.7138C25.476 14.5614 25.5656 14.4564 25.5908 14.4261C25.6644 14.3525 26.5477 13.3221 27.5536 12.1444C27.9526 11.6829 28.5042 11.0405 29.1155 10.3287C30.0638 9.22429 31.1556 7.95286 32.0433 6.9309C32.8232 6.01887 33.7312 4.96442 34.5372 4.02843C35.2273 3.22709 35.8426 2.51257 36.2387 2.0486C37.0974 1.05497 37.7966 0.184006 37.7966 0.122671C37.7966 0.0490683 37.1832 0 36.2019 0H34.6071C27.2346 8.58696 24.4745 11.8009 23.7017 12.6842C22.9411 13.5674 22.2542 14.2911 22.1929 14.2911C22.1193 14.2911 21.604 13.6287 21.052 12.8191C20.5807 12.1428 19.7327 10.9102 19.0087 9.85765C18.8659 9.6501 18.7279 9.44955 18.5986 9.26165C17.8258 8.10854 16.5377 6.23168 15.7404 5.09084C15.1246 4.18643 14.3051 3.00282 13.7021 2.13186C13.5362 1.89236 13.3868 1.6765 13.2624 1.49658L12.2197 0C2.74953 0 0.75 0.0368012 0.75 0.122671ZM5.04321 2.26934C5.04321 2.30614 5.43576 2.89496 5.92644 3.59419C6.17513 3.95127 6.47022 4.37134 6.73935 4.75445C6.98796 5.10836 7.21443 5.43073 7.36169 5.64279C7.576 5.96425 8.0503 6.6367 8.53856 7.32895C8.72107 7.5877 8.90552 7.84922 9.07908 8.09621C9.71697 9.00397 10.7229 10.4392 11.2994 11.2856C11.8882 12.1321 13.1027 13.874 13.9982 15.1498C14.3187 15.6064 14.6566 16.0883 14.9746 16.5418C15.5449 17.3552 16.0515 18.0776 16.2799 18.4006C16.6356 18.9035 17.3103 19.8726 17.7764 20.5473C18.2426 21.222 21.0395 25.2211 23.9959 29.4409C26.94 33.6608 29.4179 37.1815 29.4915 37.2673C29.6019 37.3777 30.3011 37.4023 32.3129 37.39L34.9749 37.3532C32.4791 33.7842 29.8484 30.0252 27.2176 26.2661C24.5858 22.5055 21.9539 18.7448 19.457 15.1743L10.3794 2.20801C6.24539 2.20801 5.04321 2.23254 5.04321 2.26934Z" fill="white"/>
<path fill-rule="evenodd" clip-rule="evenodd" d="M0.75 0.122671C0.75 0.184006 3.00714 3.52065 5.75497 7.51972C6.60709 8.75605 7.45803 9.99003 8.24377 11.1295C9.9918 13.6643 11.4171 15.7313 11.8149 16.3152C12.1662 16.831 12.7179 17.6291 13.273 18.4321C13.6289 18.9469 13.9861 19.4638 14.2929 19.9095L15.7158 21.9581C13.3851 24.6814 11.6922 26.6564 10.441 28.1039C9.66545 29.01 8.31795 30.5745 6.91896 32.1988C6.08298 33.1695 5.22861 34.1615 4.46693 35.0471C2.41832 37.4269 0.75 39.4019 0.75 39.4387C0.75 39.4755 1.48602 39.5 2.38152 39.5H4.00078C5.0487 38.2915 6.47505 36.6347 8.01111 34.8505C8.70472 34.0448 9.42071 33.2132 10.1343 32.3851C10.9702 31.4151 11.8355 30.4109 12.635 29.4828C14.0297 27.8641 15.2246 26.4773 15.7158 25.9081C16.4887 25.0126 17.1634 24.2766 17.2247 24.2888C17.2738 24.2888 18.0343 25.3561 18.9298 26.6441C19.813 27.9444 20.7699 29.3429 21.052 29.7477C21.201 29.9614 21.4389 30.3085 21.6989 30.6879C21.9313 31.027 22.1814 31.3919 22.4014 31.7104C22.8675 32.3851 24.2537 34.4092 25.4927 36.2247L27.7376 39.5C38.0542 39.5 39.2564 39.4632 39.2196 39.3405C39.2073 39.2669 38.0787 37.5863 36.7416 35.6359C35.7047 34.1371 34.6895 32.6527 34.1525 31.8676C33.9907 31.6309 33.8723 31.4578 33.8098 31.3669C33.6725 31.1672 33.4017 30.7769 33.0784 30.3108C32.7664 29.8608 32.4053 29.3402 32.0679 28.8522C31.6344 28.2253 30.9959 27.2956 30.3865 26.4082C30.03 25.8892 29.6834 25.3846 29.3936 24.9635C28.975 24.3552 28.4866 23.6387 28.0475 22.9946C27.6631 22.4307 27.3165 21.9222 27.0874 21.5901C26.9435 21.3814 26.7627 21.1179 26.5622 20.8258C26.0792 20.1219 25.4824 19.2522 25.0143 18.5846C24.3641 17.6401 23.8121 16.8059 23.7876 16.7323C23.7753 16.6587 24.1311 16.1312 24.6095 15.5792C24.8911 15.247 25.1599 14.9319 25.346 14.7138C25.476 14.5614 25.5656 14.4564 25.5908 14.4261C25.6644 14.3525 26.5477 13.3221 27.5536 12.1444C27.9526 11.6829 28.5042 11.0405 29.1155 10.3287C30.0638 9.22429 31.1556 7.95286 32.0433 6.9309C32.8232 6.01887 33.7312 4.96442 34.5372 4.02843C35.2273 3.22709 35.8426 2.51257 36.2387 2.0486C37.0974 1.05497 37.7966 0.184006 37.7966 0.122671C37.7966 0.0490683 37.1832 0 36.2019 0H34.6071C27.2346 8.58696 24.4745 11.8009 23.7017 12.6842C22.9411 13.5674 22.2542 14.2911 22.1929 14.2911C22.1193 14.2911 21.604 13.6287 21.052 12.8191C20.5807 12.1428 19.7327 10.9102 19.0087 9.85765C18.8659 9.6501 18.7279 9.44955 18.5986 9.26165C17.8258 8.10854 16.5377 6.23168 15.7404 5.09084C15.1246 4.18643 14.3051 3.00282 13.7021 2.13186C13.5362 1.89236 13.3868 1.6765 13.2624 1.49658L12.2197 0C2.74953 0 0.75 0.0368012 0.75 0.122671ZM5.04321 2.26934C5.04321 2.30614 5.43576 2.89496 5.92644 3.59419C6.17513 3.95127 6.47022 4.37134 6.73935 4.75445C6.98796 5.10836 7.21443 5.43073 7.36169 5.64279C7.576 5.96425 8.0503 6.6367 8.53856 7.32895C8.72107 7.5877 8.90552 7.84922 9.07908 8.09621C9.71697 9.00397 10.7229 10.4392 11.2994 11.2856C11.8882 12.1321 13.1027 13.874 13.9982 15.1498C14.3187 15.6064 14.6566 16.0883 14.9746 16.5418C15.5449 17.3552 16.0515 18.0776 16.2799 18.4006C16.6356 18.9035 17.3103 19.8726 17.7764 20.5473C18.2426 21.222 21.0395 25.2211 23.9959 29.4409C26.94 33.6608 29.4179 37.1815 29.4915 37.2673C29.6019 37.3777 30.3011 37.4023 32.3129 37.39L34.9749 37.3532C32.4791 33.7842 29.8484 30.0252 27.2176 26.2661C24.5858 22.5055 21.9539 18.7448 19.457 15.1743L10.3794 2.20801C6.24539 2.20801 5.04321 2.23254 5.04321 2.26934Z" fill="url(#paint0_linear_1_2581)"/>
<path fill-rule="evenodd" clip-rule="evenodd" d="M0.75 0.122671C0.75 0.184006 3.00714 3.52065 5.75497 7.51972C6.60709 8.75605 7.45803 9.99003 8.24377 11.1295C9.9918 13.6643 11.4171 15.7313 11.8149 16.3152C12.1662 16.831 12.7179 17.6291 13.273 18.4321C13.6289 18.9469 13.9861 19.4638 14.2929 19.9095L15.7158 21.9581C13.3851 24.6814 11.6922 26.6564 10.441 28.1039C9.66545 29.01 8.31795 30.5745 6.91896 32.1988C6.08298 33.1695 5.22861 34.1615 4.46693 35.0471C2.41832 37.4269 0.75 39.4019 0.75 39.4387C0.75 39.4755 1.48602 39.5 2.38152 39.5H4.00078C5.0487 38.2915 6.47505 36.6347 8.01111 34.8505C8.70472 34.0448 9.42071 33.2132 10.1343 32.3851C10.9702 31.4151 11.8355 30.4109 12.635 29.4828C14.0297 27.8641 15.2246 26.4773 15.7158 25.9081C16.4887 25.0126 17.1634 24.2766 17.2247 24.2888C17.2738 24.2888 18.0343 25.3561 18.9298 26.6441C19.813 27.9444 20.7699 29.3429 21.052 29.7477C21.201 29.9614 21.4389 30.3085 21.6989 30.6879C21.9313 31.027 22.1814 31.3919 22.4014 31.7104C22.8675 32.3851 24.2537 34.4092 25.4927 36.2247L27.7376 39.5C38.0542 39.5 39.2564 39.4632 39.2196 39.3405C39.2073 39.2669 38.0787 37.5863 36.7416 35.6359C35.7047 34.1371 34.6895 32.6527 34.1525 31.8676C33.9907 31.6309 33.8723 31.4578 33.8098 31.3669C33.6725 31.1672 33.4017 30.7769 33.0784 30.3108C32.7664 29.8608 32.4053 29.3402 32.0679 28.8522C31.6344 28.2253 30.9959 27.2956 30.3865 26.4082C30.03 25.8892 29.6834 25.3846 29.3936 24.9635C28.975 24.3552 28.4866 23.6387 28.0475 22.9946C27.6631 22.4307 27.3165 21.9222 27.0874 21.5901C26.9435 21.3814 26.7627 21.1179 26.5622 20.8258C26.0792 20.1219 25.4824 19.2522 25.0143 18.5846C24.3641 17.6401 23.8121 16.8059 23.7876 16.7323C23.7753 16.6587 24.1311 16.1312 24.6095 15.5792C24.8911 15.247 25.1599 14.9319 25.346 14.7138C25.476 14.5614 25.5656 14.4564 25.5908 14.4261C25.6644 14.3525 26.5477 13.3221 27.5536 12.1444C27.9526 11.6829 28.5042 11.0405 29.1155 10.3287C30.0638 9.22429 31.1556 7.95286 32.0433 6.9309C32.8232 6.01887 33.7312 4.96442 34.5372 4.02843C35.2273 3.22709 35.8426 2.51257 36.2387 2.0486C37.0974 1.05497 37.7966 0.184006 37.7966 0.122671C37.7966 0.0490683 37.1832 0 36.2019 0H34.6071C27.2346 8.58696 24.4745 11.8009 23.7017 12.6842C22.9411 13.5674 22.2542 14.2911 22.1929 14.2911C22.1193 14.2911 21.604 13.6287 21.052 12.8191C20.5807 12.1428 19.7327 10.9102 19.0087 9.85765C18.8659 9.6501 18.7279 9.44955 18.5986 9.26165C17.8258 8.10854 16.5377 6.23168 15.7404 5.09084C15.1246 4.18643 14.3051 3.00282 13.7021 2.13186C13.5362 1.89236 13.3868 1.6765 13.2624 1.49658L12.2197 0C2.74953 0 0.75 0.0368012 0.75 0.122671ZM5.04321 2.26934C5.04321 2.30614 5.43576 2.89496 5.92644 3.59419C6.17513 3.95127 6.47022 4.37134 6.73935 4.75445C6.98796 5.10836 7.21443 5.43073 7.36169 5.64279C7.576 5.96425 8.0503 6.6367 8.53856 7.32895C8.72107 7.5877 8.90552 7.84922 9.07908 8.09621C9.71697 9.00397 10.7229 10.4392 11.2994 11.2856C11.8882 12.1321 13.1027 13.874 13.9982 15.1498C14.3187 15.6064 14.6566 16.0883 14.9746 16.5418C15.5449 17.3552 16.0515 18.0776 16.2799 18.4006C16.6356 18.9035 17.3103 19.8726 17.7764 20.5473C18.2426 21.222 21.0395 25.2211 23.9959 29.4409C26.94 33.6608 29.4179 37.1815 29.4915 37.2673C29.6019 37.3777 30.3011 37.4023 32.3129 37.39L34.9749 37.3532C32.4791 33.7842 29.8484 30.0252 27.2176 26.2661C24.5858 22.5055 21.9539 18.7448 19.457 15.1743L10.3794 2.20801C6.24539 2.20801 5.04321 2.23254 5.04321 2.26934Z" fill="#FCBB63"/>
<defs>
<linearGradient id="paint0_linear_1_2581" x1="0.75" y1="0" x2="40.2362" y2="38.4569" gradientUnits="userSpaceOnUse">
<stop stop-color="#DB00FF"/>
<stop offset="1" stop-color="#00E0FF"/>
</linearGradient>
</defs>
</svg>
